<?xml version="1.0" standalone="no"?>
<!DOCTYPE svg PUBLIC "-//W3C//DTD SVG 20010904//EN"
 "http://www.w3.org/TR/2001/REC-SVG-20010904/DTD/svg10.dtd">
<svg version="1.0" xmlns="http://www.w3.org/2000/svg"
 width="1080.000000pt" height="1080.000000pt" viewBox="0 0 1080.000000 1080.000000"
 preserveAspectRatio="xMidYMid meet">

<g transform="translate(0.000000,1080.000000) scale(0.100000,-0.100000)"
fill="#000000" stroke="none">
<path d="M4394 8550 c-297 -24 -546 -196 -668 -462 -71 -154 -69 -133 -70
-928 0 -474 -4 -717 -11 -722 -5 -4 -22 -8 -38 -8 -37 0 -224 -44 -322 -77
-194 -63 -305 -124 -418 -232 -97 -93 -149 -171 -178 -271 l-22 -77 -83 -7
c-46 -4 -108 -14 -136 -22 -137 -40 -255 -165 -292 -309 -14 -52 -16 -223 -16
-1431 0 -834 4 -1391 10 -1422 14 -77 48 -139 113 -209 71 -75 152 -118 253
-133 42 -6 478 -10 1127 -10 877 0 1057 -2 1057 -13 0 -8 14 -41 30 -74 61
-121 196 -214 342 -235 46 -7 188 -8 386 -4 300 5 315 7 388 31 131 44 215
121 265 239 l23 56 1061 0 c724 0 1080 3 1121 11 182 33 322 164 358 333 8 36
10 474 6 1471 l-5 1420 -34 63 c-80 148 -248 242 -432 242 -35 0 -37 2 -48 45
-76 300 -408 525 -897 608 -73 12 -78 15 -86 43 -4 16 -8 340 -8 721 0 777 1
771 -71 919 -100 205 -296 364 -525 425 -78 21 -92 22 -1079 24 -550 1 -1045
-1 -1101 -5z m2190 -344 c140 -69 249 -209 276 -355 13 -72 13 -1430 0 -1502
-29 -156 -163 -310 -313 -362 -20 -6 -179 -13 -412 -17 -321 -5 -386 -8 -417
-22 -23 -10 -158 -139 -374 -357 -185 -188 -340 -341 -343 -341 -3 0 -6 136
-6 303 0 293 -1 303 -22 337 -45 72 -55 74 -368 80 -219 5 -289 9 -322 21
-157 60 -269 187 -308 351 -21 92 -22 1419 0 1521 28 133 119 258 237 325 111
64 58 61 1229 59 l1065 -2 78 -39z m-2836 -2139 c102 -184 247 -306 437 -367
61 -20 99 -24 285 -29 l215 -6 1 -426 c1 -398 3 -428 20 -458 36 -61 111 -87
177 -62 14 5 234 220 490 478 l465 468 369 6 c348 5 372 7 438 28 198 65 354
200 449 389 19 38 32 52 48 52 36 0 265 -60 351 -91 179 -66 289 -146 338
-246 l24 -48 5 -1165 c3 -641 4 -1168 2 -1172 -1 -3 -39 10 -85 29 -125 53
-360 131 -472 158 -185 43 -259 50 -505 50 -205 -1 -248 -4 -340 -23 -225 -49
-439 -131 -583 -225 -81 -53 -244 -183 -281 -225 -11 -12 -23 -22 -28 -22 -5
0 -8 376 -6 910 2 501 2 910 1 910 -1 0 -70 -69 -153 -152 l-150 -153 3 -600
c2 -330 2 -671 -1 -758 l-5 -157 -66 63 c-235 225 -547 371 -901 423 -168 24
-448 16 -630 -19 -194 -37 -480 -126 -651 -200 l-37 -16 -7 192 c-3 106 -5
629 -3 1162 l3 970 28 56 c57 116 189 209 397 278 101 33 301 81 312 75 3 -2
24 -37 46 -77z m4566 -626 c16 -9 38 -29 50 -44 l21 -28 3 -1352 2 -1352 -22
-45 c-14 -26 -37 -53 -58 -65 -35 -20 -51 -20 -1195 -22 -1032 -2 -1158 -1
-1140 12 48 37 226 120 333 154 213 70 319 86 547 85 210 -1 198 0 570 -75 84
-17 152 -21 415 -25 364 -6 366 -6 409 79 26 53 24 91 -9 144 -38 63 -57 67
-350 74 -249 5 -279 8 -505 47 -132 22 -298 46 -370 53 -314 28 -660 -27 -947
-151 -180 -79 -374 -233 -399 -318 -26 -89 28 -161 124 -166 l42 -2 3 -77 c3
-84 -11 -127 -51 -149 -17 -10 -107 -13 -375 -13 l-354 0 -34 37 c-33 37 -34
40 -34 123 l0 85 43 0 c48 0 98 26 123 65 25 39 15 116 -23 163 -98 122 -385
282 -623 346 -168 45 -280 59 -475 59 -193 0 -293 -11 -577 -64 -150 -29 -188
-32 -473 -39 -170 -4 -322 -13 -336 -18 -60 -23 -99 -115 -78 -180 6 -20 19
-45 28 -56 36 -42 68 -46 343 -46 311 1 398 8 640 55 212 40 329 55 448 55
243 0 528 -77 740 -200 60 -35 80 -51 68 -55 -9 -4 -531 -5 -1161 -3 l-1146 3
-32 30 c-63 59 -59 -32 -59 1437 0 1259 1 1345 18 1377 28 55 63 75 142 79
l70 4 0 -1146 c0 -1256 -3 -1188 58 -1220 79 -41 187 -21 490 90 469 172 740
212 1064 158 382 -62 726 -290 957 -632 87 -128 114 -152 173 -152 54 0 89 31
168 146 91 132 292 339 400 411 318 212 710 293 1100 227 130 -22 248 -57 523
-153 315 -111 390 -129 449 -112 23 7 57 28 75 46 l33 33 0 869 c0 479 3 998
7 1155 l6 286 56 -5 c31 -3 69 -13 85 -22z"/>
<path d="M4583 7315 c-112 -56 -154 -190 -95 -306 39 -78 92 -112 180 -117
118 -7 205 54 238 164 18 61 9 111 -30 178 -59 101 -183 135 -293 81z"/>
<path d="M5314 7316 c-154 -71 -174 -293 -36 -389 40 -27 58 -32 117 -35 61
-3 77 0 125 25 36 18 65 43 85 71 27 39 30 51 30 121 0 69 -3 83 -30 127 -59
96 -183 130 -291 80z"/>
<path d="M6055 7325 c-50 -17 -117 -89 -133 -142 -45 -149 63 -296 214 -295
201 2 305 222 175 373 -62 73 -160 98 -256 64z"/>
</g>
</svg>
